<svg xmlns="http://www.w3.org/2000/svg" width="40" height="40" viewBox="0 0 40 40">
  <g fill="none" fill-rule="evenodd" transform="translate(2.5 1.5)">
    <path fill="#F26724" d="M9.65483431,7.9934502 C18.09322,-0.363141723 28.3106191,-2.53067536 32.4275697,3.22214976 C36.5445204,8.97497487 32.8978836,20.4533605 24.459498,28.8031363 C16.0211123,37.1529121 5.77644866,39.334078 1.68676256,33.6221498 C-2.40292353,27.9102215 1.20963252,16.390939 9.65483431,7.9934502"/>
    <path fill="#AF2B30" d="M15.2372558,3.53569236 C14.2619215,4.26495749 13.337335,5.05973753 12.4699016,5.91452644 C5.09483431,13.2282484 1.99348902,23.2275309 5.62649351,28.2510287 C9.39582086,33.2745264 18.4817401,31.4546161 26.0203949,24.0522843 C30.1100809,20.1125533 32.8365383,15.4843919 33.9407536,11.2379345 C34.2883769,8.08206007 33.8112469,5.30788967 32.4207536,3.18806904 C29.1762693,-1.26968881 22.1965383,-0.90161706 15.2372558,3.53569236"/>
    <path fill="#FFF" d="M19.4087357,32.9269031 C15.4690047,35.912374 11.3588702,37.384661 7.37824238,36.7371273 C9.06182983,36.8257372 10.4046101,34.96493 11.5292738,32.4906699 C12.5117054,30.1832478 13.2938992,27.7956185 13.867211,25.3541677 C14.6510675,21.8438538 14.6919644,19.335513 14.3034442,18.7697731 C13.6218298,17.9041229 12.0950137,18.0881587 10.3637132,19.1173964 C9.49806301,19.5945264 8.4142962,19.2878 9.68209889,17.6860063 C10.9499016,16.0842125 16.2596774,12.2330915 18.1613814,11.6264547 C20.2403052,11.0198179 22.6259554,11.8445713 21.801202,14.1416116 C21.2968074,15.7843022 14.0239823,34.917217 19.4087357,32.9269031 M25.3864935,3.2766789 C26.3816505,4.27183586 25.7750137,6.43255334 24.0846101,8.12295693 C22.3942065,9.81336052 20.185776,10.3722843 19.2383321,9.4180242 C18.2908881,8.46376411 18.8020989,6.26214976 20.4925025,4.53084931 C22.1829061,2.79954886 24.4322334,2.32241881 25.3864935,3.2766789"/>
  </g>
</svg>
